HIERARCHY
ROOT joint_0
{
	OFFSET 0.000000 0.000000 0.000000
	CHANNELS 6 Xposition Yposition Zposition Zrotation Yrotation Xrotation 
	JOINT joint_1
	{
		OFFSET 4.520508 -1.939880 86.268921
		CHANNELS 3 Zrotation Yrotation Xrotation
		JOINT joint_2
		{
			OFFSET -4.459717 -0.438538 78.934082
			CHANNELS 3 Zrotation Yrotation Xrotation
			JOINT joint_3
			{
				OFFSET -5.197754 -0.781128 78.796997
				CHANNELS 3 Zrotation Yrotation Xrotation
				JOINT joint_4
				{
					OFFSET 2.952026 -3.710571 109.812988
					CHANNELS 3 Zrotation Yrotation Xrotation
					JOINT joint_5
					{
						OFFSET 24.716797 -5.488037 87.903931
						CHANNELS 3 Zrotation Yrotation Xrotation
						End Site
						{
							OFFSET 0.000000 0.000000 0.000000
						}
					}
				}
				JOINT joint_6
				{
					OFFSET -3.154419 -25.484680 60.934937
					CHANNELS 3 Zrotation Yrotation Xrotation
					JOINT joint_7
					{
						OFFSET -28.997192 -144.472229 -32.671997
						CHANNELS 3 Zrotation Yrotation Xrotation
						JOINT joint_8
						{
							OFFSET 19.867676 -18.614380 -249.897949
							CHANNELS 3 Zrotation Yrotation Xrotation
							JOINT joint_9
							{
								OFFSET 5.281982 -13.816650 -264.993042
								CHANNELS 3 Zrotation Yrotation Xrotation
								End Site
								{
									OFFSET 0.000000 0.000000 0.000000
								}
							}
						}
					}
				}
				JOINT joint_10
				{
					OFFSET 6.494995 21.336792 62.257935
					CHANNELS 3 Zrotation Yrotation Xrotation
					JOINT joint_11
					{
						OFFSET 31.106567 145.200745 -27.007935
						CHANNELS 3 Zrotation Yrotation Xrotation
						JOINT joint_12
						{
							OFFSET 29.119141 24.684326 -248.460083
							CHANNELS 3 Zrotation Yrotation Xrotation
							JOINT joint_13
							{
								OFFSET 21.220093 31.248413 -262.703979
								CHANNELS 3 Zrotation Yrotation Xrotation
								End Site
								{
									OFFSET 0.000000 0.000000 0.000000
								}
							}
						}
					}
				}
			}
		}
	}
	JOINT joint_14
	{
		OFFSET -15.458496 -88.861694 -109.593018
		CHANNELS 3 Zrotation Yrotation Xrotation
		JOINT joint_15
		{
			OFFSET -6.193359 6.837952 -506.710999
			CHANNELS 3 Zrotation Yrotation Xrotation
			JOINT joint_16
			{
				OFFSET -35.096680 13.289795 -435.677025
				CHANNELS 3 Zrotation Yrotation Xrotation
				JOINT joint_17
				{
					OFFSET 158.491211 -33.916565 -71.771002
					CHANNELS 3 Zrotation Yrotation Xrotation
					End Site
					{
						OFFSET 0.000000 0.000000 0.000000
					}
				}
			}
		}
	}
	JOINT joint_18
	{
		OFFSET 23.116943 86.574158 -110.082031
		CHANNELS 3 Zrotation Yrotation Xrotation
		JOINT joint_19
		{
			OFFSET -6.125854 -0.283569 -506.757019
			CHANNELS 3 Zrotation Yrotation Xrotation
			JOINT joint_20
			{
				OFFSET -63.240234 11.589966 -432.537994
				CHANNELS 3 Zrotation Yrotation Xrotation
				JOINT joint_21
				{
					OFFSET 156.074219 -41.487305 -73.077999
					CHANNELS 3 Zrotation Yrotation Xrotation
					End Site
					{
						OFFSET 0.000000 0.000000 0.000000
					}
				}
			}
		}
	}
}
MOTION
Frames: 7
Frame Time: 0.016667
-1888.082031 744.639099 1155.051025 17.754025 3.723153 1.928444 -0.617052 1.162435 -1.399420 -0.479278 -0.261552 0.261771 -0.496417 0.281608 -0.176200 -0.576996 -0.124010 1.949732 0.000000 0.000000 0.000000 2.308536 4.745493 -2.768576 0.088237 3.885142 4.150158 -0.124135 1.014755 -1.467300 0.000000 0.000000 0.000000 -0.694791 3.369227 3.237497 -0.888734 5.023420 -3.792586 0.280140 -0.307141 5.043942 0.000000 0.000000 0.000000 -0.005191 -2.296086 0.291582 0.111520 12.687875 1.853740 0.694835 0.748705 0.455000 0.000000 0.000000 0.000000 -1.330708 -17.508018 -6.967995 -0.961142 26.385155 3.951956 1.240609 -2.949112 -0.290688 0.000000 0.000000 0.000000 
-1877.487061 744.571533 1153.522949 17.890700 3.946103 2.118424 -0.567372 1.389042 -1.483998 -0.412453 -0.252916 0.332277 -0.438173 0.283258 -0.186902 -0.579036 -0.194245 1.940123 0.000000 0.000000 0.000000 2.333674 4.975666 -3.145993 0.098881 4.037459 4.217188 -0.070358 0.379825 -1.680169 0.000000 0.000000 0.000000 -0.788196 3.170767 3.289642 -0.909165 4.871255 -3.854736 0.077767 -1.328213 4.397066 0.000000 0.000000 0.000000 -0.199026 -2.865529 0.195655 -0.054466 14.573492 2.036439 0.733849 0.080301 0.321272 0.000000 0.000000 0.000000 -1.428822 -18.909541 -7.832871 -0.827098 23.469172 3.709065 0.895989 -3.032227 -0.453606 0.000000 0.000000 0.000000 
-1866.291260 744.583252 1151.437988 18.045600 4.083161 2.145557 -0.527657 1.557371 -1.382412 -0.369782 -0.231869 0.344397 -0.400491 0.256430 -0.200058 -0.565209 -0.211440 1.889207 0.000000 0.000000 0.000000 2.318579 5.243140 -3.640179 0.135291 4.151654 4.494910 -0.033365 -0.167640 -2.064765 0.000000 0.000000 0.000000 -0.918083 2.983139 3.450114 -0.950787 4.783621 -4.048961 -0.124280 -2.304896 3.803397 0.000000 0.000000 0.000000 -0.431160 -3.343361 0.294474 -0.250202 16.547942 2.195684 0.778479 -0.585641 0.188039 0.000000 0.000000 0.000000 -1.373717 -20.078314 -8.538003 -0.531216 19.603105 3.509343 0.725389 -2.301698 -0.320678 0.000000 0.000000 0.000000 
-1854.623413 744.717834 1148.837036 18.129666 4.053752 2.024823 -0.503786 1.891187 -1.038283 -0.334478 -0.291930 0.254714 -0.355198 0.279872 -0.187438 -0.547112 -0.134196 1.842160 0.000000 0.000000 0.000000 2.301412 5.434762 -4.083967 0.165758 4.220889 4.677850 -0.005468 -0.677420 -2.493131 0.000000 0.000000 0.000000 -1.052271 2.802713 3.491339 -0.989032 4.660048 -4.173671 -0.312846 -3.195878 3.315908 0.000000 0.000000 0.000000 -0.654529 -3.652395 0.521282 -0.444606 18.576436 2.382414 0.854153 -1.067165 0.105094 0.000000 0.000000 0.000000 -1.401856 -21.090913 -8.993276 -0.402812 16.111183 3.035722 0.422743 -0.452468 0.053658 0.000000 0.000000 0.000000 
-1842.589233 744.942139 1145.829956 18.318672 3.888816 1.909400 -0.580596 2.378622 -0.681064 -0.368405 -0.409480 0.174763 -0.371783 0.387972 -0.127076 -0.525332 0.068673 1.805211 0.000000 0.000000 0.000000 2.301863 5.486455 -4.428141 0.178833 4.217759 4.650064 0.014264 -1.162636 -2.940658 0.000000 0.000000 0.000000 -1.172977 2.614702 3.280562 -1.005607 4.433872 -4.132710 -0.470739 -3.950449 2.987014 0.000000 0.000000 0.000000 -0.921602 -3.734611 0.752928 -0.700709 20.467812 2.555450 0.862286 -1.327280 0.040407 0.000000 0.000000 0.000000 -1.671109 -22.218921 -9.345815 -0.635595 13.594132 2.197631 -0.211922 2.235963 0.513420 0.000000 0.000000 0.000000 
-1830.082886 745.288330 1142.307983 18.539638 3.595731 1.735785 -0.720296 2.944584 -0.251831 -0.433055 -0.560243 0.074885 -0.410006 0.544899 -0.035085 -0.500195 0.361883 1.771980 0.000000 0.000000 0.000000 2.308463 5.462336 -4.728044 0.184121 4.167343 4.533422 0.023533 -1.612830 -3.429579 0.000000 0.000000 0.000000 -1.295760 2.431199 2.961182 -1.013329 4.173423 -4.032224 -0.607607 -4.625257 2.770461 0.000000 0.000000 0.000000 -1.210467 -3.686114 1.006855 -0.983714 22.417334 2.782062 0.872191 -1.423715 0.010234 0.000000 0.000000 0.000000 -2.029206 -23.301086 -9.578766 -1.040454 11.556108 1.227725 -0.988812 5.589143 1.108637 0.000000 0.000000 0.000000 
-1816.914307 745.904480 1137.973999 18.505481 3.114839 1.373162 -0.793464 3.573620 0.401352 -0.421462 -0.739823 -0.129633 -0.358444 0.707903 0.059567 -0.483037 0.681928 1.769479 0.000000 0.000000 0.000000 2.333137 5.447182 -4.987466 0.182537 4.142550 4.399353 0.026309 -2.042660 -3.907335 0.000000 0.000000 0.000000 -1.413831 2.291326 2.734067 -1.036637 3.984838 -3.990378 -0.751947 -5.341195 2.574770 0.000000 0.000000 0.000000 -1.420914 -3.719772 1.228253 -1.174059 24.984346 3.299156 1.144081 -1.312001 0.125918 0.000000 0.000000 0.000000 -2.315652 -23.971029 -9.586883 -1.377399 9.982497 0.494007 -1.606115 9.263545 1.878940 0.000000 0.000000 0.000000 
